<?xml version="1.0" encoding="utf-8"?>
<!-- Generator: Adobe Illustrator 27.0.0, SVG Export Plug-In . SVG Version: 6.00 Build 0)  -->
<svg version="1.2" baseProfile="tiny-ps" id="a" xmlns="http://www.w3.org/2000/svg" xmlns:xlink="http://www.w3.org/1999/xlink"
	 viewBox="0 0 1000.25 1000.25" xml:space="preserve">
<title>Ochanoco.com</title>
<g>
	<path fill="#912727" d="M916.33,505.75C820.67,404.21,725.29,302.97,629.32,201.1c-0.81,10.92-7.26,16.92-15.91,19.95
		c-21.79,7.63-39.71,21.49-58.09,34.68c-8.26,5.92-13.1,14.48-17.8,23.15c-1.38,2.53,0.22,4.12,1.73,5.66
		c6.51,6.6,11.14,14.52,15.81,22.4c7.85,13.26,8.78,27.07,4.26,41.83c-5.87,19.18-17.39,32.96-35.56,41.48
		c-9.5,4.46-18.89,9.15-28.81,12.61c-2.81,0.98-5.74,1.86-8.69,2.2c-14.73,1.7-24.48-11.49-18.56-25.08
		c1.18-2.72,2.77-5.37,4.63-7.67c5.38-6.66,7.89-14.55,10.39-22.52c0.93-2.97,0-4.53-2.36-6.18c-9.83-6.86-20.2-12.22-32.4-13.33
		c-34.93-3.17-50.58-44.95-37.15-70.61c6.19-11.82,13.78-22.41,23.48-31.46c28.42-26.52,61.62-42,100.84-44.02
		c22.14-1.14,44.26-2.41,66.43-1.22c3.08,0.17,6.15,0.63,9.25,0.96c-0.46-3.49-82.32-92.01-95.83-103.65
		C373.28,213.77,231.55,347.29,89.63,480.99c1.38,1.56,2.43,2.81,3.54,4c56.67,60.17,113.34,120.34,170.02,180.5
		c9.15,9.72,7.91,25.16-3.14,33.04c-4.8,3.42-9.81,6.5-15.97,7.88c-6.78,1.52-11.66,0.08-16.25-4.84
		c-17.4-18.64-34.94-37.14-52.43-55.7c-45.03-47.79-90.05-95.58-135.07-143.37c-0.46-0.49-0.91-0.98-1.36-1.46
		c-13.64-14.72-13.29-28.94,1.18-42.67c14.62-13.88,29.32-27.68,44-41.51c136.83-128.9,273.65-257.79,410.46-386.7
		c4.91-4.63,10.01-8.85,16.92-10.02c10.52-1.77,18.79,2.23,25.88,9.78c22.68,24.19,45.46,48.29,68.2,72.43
		c119.07,126.39,238.14,252.78,357.21,379.17c1.94,2.06,3.9,4.11,5.79,6.22c11.43,12.78,11,27.56-1.49,39.44
		c-23.07,21.93-46.29,43.7-69.46,65.52c-37.48,35.31-74.97,70.61-112.44,105.92c-6.91,6.51-17.58,6.36-24.99,0.21
		c-6.71-5.58-11.57-12.2-13.54-20.69c-1.49-6.43-0.3-12.24,4.78-17.02c53.27-50.14,106.5-100.32,159.75-150.49
		c1.57-1.48,3.13-2.98,5.13-4.88H916.33z M515.14,356.72c10.45-4.43,17.28-22.82,12.05-32.4c-3.99-7.32-8.76-14.1-14.38-20.34
		c-9.93-11.01-11.94-23.61-5.74-37.08c7.49-16.27,17.44-30.65,32.95-40.5c4.52-2.87,8.73-6.22,14.11-10.08
		c-7.46-0.54-13.34,0.58-19.27,0.86c-31.93,1.53-58.12,15.5-80.61,37.36c-5.16,5.02-9.49,10.74-12.76,17.18
		c-6.48,12.78-0.8,24.57,13.28,26.41c19.4,2.54,35.61,11.54,50.53,23.44c10.89,8.68,15.28,19.47,10.06,33.13
		c-0.22,0.58-0.15,1.27-0.23,2.01L515.14,356.72z"/>
	<path fill="#922828" d="M667.42,373.51c-3.53-4.28-7.8-6.51-12.14-8.59c-20.7-9.9-42.63-16.13-64.8-21.63
		c-5.2-1.29-10.58-8.71-10.06-14.09c1.09-11.16,9.51-17.07,20.83-15.79c15.39,1.74,29.7,7.07,44.16,11.97
		c10.73,3.64,21.21,7.97,31.06,13.65c6.11,3.53,11.64,7.77,16.11,13.28c10.78,13.28,10.53,30-0.64,42.96
		c-6.11,7.09-13.84,11.97-22.28,15.73c-27.12,12.08-55.7,19.3-84.87,23.96c-51.84,8.27-103.86,9.09-155.82,1.11
		c-26.78-4.11-52.24-13.29-77.66-22.33c-11.92-4.24-23.73-8.79-35.49-13.47c-3.16-1.26-4.89-0.62-7.24,1.75
		c-12.51,12.58-11.93,27.86-9.18,43.48c0.85,4.81,5.31,7.54,8.75,10.62c8.32,7.43,15.42,15.57,18.44,26.72
		c3.05,11.28,3.84,22.62,2.27,34.16c-1.64,12.07-6.97,22.52-16.15,30.21c-14.69,12.3-14.97,27.89-12.24,44.66
		c0.95,5.8,4.42,9.9,8.28,13.9c6.97,7.21,13.82,14.5,16.78,24.47c4.81,16.19,5.17,32.48,1.08,48.85
		c-2.13,8.51-6.85,15.7-13.32,21.33c-8.34,7.25-12.64,15.78-10.95,26.82c1.79,11.71,8.12,20.67,17.93,27.07
		c9.49,6.2,20.33,9.14,31.18,11.73c43.34,10.36,87.48,13.72,131.87,14.42c19.5,0.31,38.99-0.81,58.47-0.96
		c33.95-0.26,67.38-4.33,100.5-11.41c10.27-2.19,20.48-4.78,30-9.31c15.25-7.26,25.06-18.48,25.1-36.36
		c0.01-6.83-2.05-12.57-7.27-17.35c-9.27-8.47-16.5-18.22-18.53-31.15c-2.23-14.21-1.79-28.2,2.14-42.07
		c2.64-9.3,8.16-16.86,15.09-23.18c14.58-13.3,12.7-29.68,9.31-46.33c-0.99-4.86-5.26-7.99-8.62-11.44
		c-7.85-8.06-15.44-16.33-17.6-27.89c-4.65-24.94-2.42-48.32,18.95-65.39c13.44-10.74,11.47-24.25,9.59-38.25
		c-0.58-4.3-2.67-8.11-1.43-13.01c2.07-8.13,11.37-14.26,19.56-12.45c7.33,1.63,10.93,5.81,12.67,12.84
		c3.58,14.46,4.18,28.95,1.75,43.62c-2.08,12.54-9.01,22.26-18.7,29.79c-10.58,8.23-12.49,19-11.28,31.21
		c0.44,4.49,2.06,8.36,5.25,11.58c1.17,1.18,2.19,2.54,3.44,3.62c18.9,16.33,22.8,37.74,21.15,61.23
		c-1.2,17.07-7.44,31.55-20.13,43.24c-12.46,11.48-10.65,25.97-7.87,40.47c0.54,2.82,2.73,5.08,4.94,6.78
		c33.46,25.67,25.46,83.82-17.36,107.07c-14.81,8.04-30.92,12.31-47.25,15.65c-55.81,11.41-112.27,14.37-169.07,12.54
		c-34.5-1.11-68.86-3.98-102.94-9.53c-20.55-3.35-41.12-7.32-60.07-16.38c-27.35-13.09-43.22-34.46-43.74-65.5
		c-0.26-15.59,4.27-29.84,16.53-40.3c14.01-11.95,11.63-26.74,8.2-41.84c-0.79-3.49-3.58-6.02-6.12-8.39
		c-24.59-22.89-25.03-51.11-17.54-80.84c2.43-9.64,9.08-17.14,16.37-23.51c10.83-9.46,11.63-20.95,8.66-33.71
		c-0.86-3.7-2.56-6.83-5.4-9.35c-1-0.88-1.88-1.91-2.92-2.73c-13.67-10.88-21.38-24.75-21.99-42.45
		c-0.71-20.69,1.77-40.35,16.81-56.28c4-4.24,8.04-8.45,12.15-12.58c6.78-6.81,14.68-7.93,23.43-4.4
		c17.3,6.98,34.94,13.06,52.29,19.88c57.73,22.71,117.59,26.11,178.53,20.88c33.88-2.91,66.85-9.88,98.77-21.64
		c7.15-2.63,14.35-5.38,20.27-11.4L667.42,373.51z"/>
	<path fill="#912727" d="M490.16,907.26c12.14-11.42,23.55-22.14,34.95-32.87c16.62-15.65,33.16-31.4,49.9-46.93
		c5.35-4.97,12.1-5.95,19.14-4.84c13.41,2.11,20.25,10.99,23.3,23.33c1.3,5.27,0.29,10.39-3.87,14.31
		c-34.92,32.93-69.82,65.88-104.84,98.71c-12.3,11.53-27.47,11.28-39.06-0.91c-30.43-32-61-63.9-90.74-96.54
		c-12.3-13.5-10.88-26.69,2.53-39.08c9.12-8.44,23.01-6.93,32.19,2.78c24.39,25.79,48.7,51.66,73.02,77.52
		C487.92,904.06,488.9,905.61,490.16,907.26L490.16,907.26z"/>
	<path fill="#922828" d="M505.57,572.63c-32.28,1.74-63.35-7.09-93.59-19.73c-9.34-3.9-13.32-12.99-9.9-21.59
		c3.41-8.59,12.54-12.38,22.02-8.78c13.23,5.02,26.33,10.68,40.22,13.43c33.86,6.73,67.54,6.09,100.68-4.56
		c5.86-1.88,11.72-3.79,17.6-5.62c9.82-3.07,18.67,0.79,21.81,9.45c3.23,8.91-1.19,17.91-11.03,21.42
		c-28.08,10.03-56.69,17.39-87.82,15.98L505.57,572.63z"/>
	<path fill="#922828" d="M505.82,699.24c-32.51,2.06-63.53-6.98-93.77-19.59c-9.4-3.92-13.38-12.89-9.99-21.53
		c3.38-8.6,12.43-12.44,22.01-8.84c12.32,4.62,24.47,9.87,37.32,12.7c34.1,7.51,68.08,7.03,101.68-3.22
		c6.68-2.04,13.3-4.31,19.98-6.36c9.61-2.95,18.61,1.28,21.53,10.01c2.94,8.8-1.55,17.58-11.12,20.98
		c-28.09,9.98-56.65,17.56-87.64,15.87L505.82,699.24z"/>
	<path fill="#922828" d="M348.04,359.02c-8.85,0.07-15.38-5.01-17.11-12.45c-1.82-7.83,1.78-15.65,9.62-18.68
		c9.44-3.65,19.15-6.64,28.84-9.62c7.78-2.39,15.69-4.38,23.56-6.48c6.35-1.7,12.47-1.4,16.49,4.51c4.46,6.56,6.5,13.77,2.61,21.49
		c-1.28,2.53-3.44,3.94-6.18,4.59c-17.96,4.28-35.61,9.63-53.07,15.63C350.94,358.65,348.92,358.84,348.04,359.02L348.04,359.02z"/>
	<path fill="#FCFBFB" d="M515.14,356.72c0.08-0.75,0.01-1.44,0.23-2.01c5.22-13.65,0.82-24.45-10.06-33.13
		c-14.92-11.89-31.14-20.9-50.53-23.44c-14.08-1.84-19.76-13.63-13.28-26.41c3.27-6.44,7.6-12.17,12.76-17.18
		c22.49-21.86,48.68-35.83,80.61-37.36c5.92-0.28,11.81-1.4,19.27-0.86c-5.38,3.86-9.59,7.21-14.11,10.08
		c-15.51,9.85-25.46,24.23-32.95,40.5c-6.2,13.47-4.19,26.07,5.74,37.08c5.62,6.24,10.39,13.01,14.38,20.34
		c5.22,9.58-1.6,27.97-12.05,32.4L515.14,356.72z"/>
</g>
</svg>
