<?xml version="1.0" encoding="UTF-8"?>
<svg version="1.2" baseProfile="tiny-ps" xmlns="http://www.w3.org/2000/svg" xmlns:xlink="http://www.w3.org/1999/xlink">
<title>Ochanoco</title>
<g><path fill="#902625" d="M 507.5,18.5 C 512.844,18.334 518.177,18.5006 523.5,19C 525.246,19.4709 526.913,20.1376 528.5,21C 535.97,27.4684 543.136,34.3017 550,41.5C 690,190.167 830,338.833 970,487.5C 979.02,498.667 979.686,510.334 972,522.5C 909.135,582.366 845.969,641.866 782.5,701C 772.738,704.339 764.071,702.672 756.5,696C 746.204,686.317 743.371,674.817 748,661.5C 803.5,609.333 859,557.167 914.5,505C 819.782,404.404 724.949,303.904 630,203.5C 628.554,208.895 625.721,213.395 621.5,217C 610.508,223.106 599.175,228.439 587.5,233C 576.852,241.324 565.852,249.158 554.5,256.5C 547.282,263.387 541.615,271.387 537.5,280.5C 549.006,292.507 557.173,306.507 562,322.5C 563.279,340.289 558.945,356.623 549,371.5C 544.093,377.078 538.593,381.911 532.5,386C 518.836,393.661 504.503,399.995 489.5,405C 471.496,407.329 463.33,399.495 465,381.5C 468.568,374.263 472.568,367.263 477,360.5C 479.004,355.988 480.504,351.322 481.5,346.5C 469.346,335.717 455.013,329.883 438.5,329C 422.667,323.833 412.167,313.333 407,297.5C 403.667,286.167 403.667,274.833 407,263.5C 415.02,245.466 426.853,230.299 442.5,218C 467.328,197.162 495.995,185.495 528.5,183C 555.479,180.692 582.479,180.025 609.5,181C 577.709,147.887 546.042,114.72 514.5,81.5C 373.14,214.528 231.807,347.528 90.5,480.5C 149.183,542.682 207.683,605.016 266,667.5C 271.621,684.44 266.121,696.607 249.5,704C 243.594,706.657 237.594,706.991 231.5,705C 224.39,698.893 217.557,692.393 211,685.5C 152.366,622.531 93.3661,559.865 34,497.5C 23.686,481.45 25.8526,467.283 40.5,455C 193.469,311.699 346.135,168.033 498.5,24C 501.564,22.1412 504.564,20.3079 507.5,18.5 Z M 545.5,216.5 C 546.873,216.343 548.207,216.51 549.5,217C 538.052,223.973 527.885,232.473 519,242.5C 510.658,252.855 504.991,264.522 502,277.5C 501.816,290.802 506.816,301.802 517,310.5C 520.732,315.906 524.065,321.573 527,327.5C 527.495,337.509 524.328,346.176 517.5,353.5C 520.182,342.234 517.515,332.234 509.5,323.5C 491.348,306.926 470.014,297.093 445.5,294C 438.104,285.634 437.604,276.801 444,267.5C 469.725,234.387 503.559,217.387 545.5,216.5 Z"/></g>
<g><path fill="#902625" d="M 871.5,188.5 C 870.833,187.167 870.833,187.167 871.5,188.5 Z"/></g>
<g><path  fill="#902625" d="M 871.5,188.5 C 872.167,188.5 872.5,188.833 872.5,189.5C 872.167,189.167 871.833,188.833 871.5,188.5 Z"/></g>
<g><path  fill="#902625" d="M 872.5,189.5 C 873.833,190.167 873.833,190.167 872.5,189.5 Z"/></g>
<g><path  fill="#902625" d="M 875.5,193.5 C 874.833,192.167 874.833,192.167 875.5,193.5 Z"/></g>
<g><path  fill="#902625" d="M 875.5,193.5 C 876.167,193.5 876.5,193.833 876.5,194.5C 876.167,194.167 875.833,193.833 875.5,193.5 Z"/></g>
<g><path fill="#902625" d="M 876.5,194.5 C 877.167,194.5 877.5,194.833 877.5,195.5C 877.167,195.167 876.833,194.833 876.5,194.5 Z"/></g>
<g><path  fill="#902625" d="M 877.5,195.5 C 878.906,195.973 879.573,196.973 879.5,198.5C 878.094,198.027 877.427,197.027 877.5,195.5 Z"/></g>
<g><path  fill="#902625" d="M 879.5,198.5 C 880.167,198.5 880.5,198.833 880.5,199.5C 880.167,199.167 879.833,198.833 879.5,198.5 Z"/></g>
<g><path  fill="#902625" d="M 880.5,199.5 C 881.167,199.5 881.5,199.833 881.5,200.5C 881.167,200.167 880.833,199.833 880.5,199.5 Z"/></g>
<g><path  fill="#902625" d="M 881.5,200.5 C 882.167,200.5 882.5,200.833 882.5,201.5C 882.167,201.167 881.833,200.833 881.5,200.5 Z"/></g>
<g><path  fill="#902625" d="M 882.5,201.5 C 883.833,202.167 883.833,202.167 882.5,201.5 Z"/></g>
<g><path  fill="#902625" d="M 885.5,205.5 C 884.833,204.167 884.833,204.167 885.5,205.5 Z"/></g>
<g><path  fill="#902625" d="M 885.5,205.5 C 886.167,205.5 886.5,205.833 886.5,206.5C 886.167,206.167 885.833,205.833 885.5,205.5 Z"/></g>
<g><path  fill="#902625" d="M 886.5,206.5 C 887.833,207.167 887.833,207.167 886.5,206.5 Z"/></g>
<g><path  fill="#902625" d="M 392.5,309.5 C 406.684,308.48 414.017,315.147 414.5,329.5C 414.403,335.505 411.736,339.838 406.5,342.5C 387.555,347.144 368.888,352.644 350.5,359C 340.233,360.785 333.067,356.952 329,347.5C 327.333,339.679 329.499,333.179 335.5,328C 342.266,324.744 349.266,322.078 356.5,320C 368.611,316.477 380.611,312.977 392.5,309.5 Z"/></g>
<g><path fill="#902625" d="M 589.5,312.5 C 596.841,312.334 604.174,312.5 611.5,313C 634.048,318.846 655.714,326.846 676.5,337C 687.958,343.121 695.791,352.287 700,364.5C 702.151,375.1 700.151,384.766 694,393.5C 685.79,402.687 675.957,409.52 664.5,414C 607.73,434.683 549.064,444.016 488.5,442C 461.882,441.435 435.548,438.435 409.5,433C 376.09,423.784 343.423,412.617 311.5,399.5C 299.454,411.321 295.287,425.654 299,442.5C 299.471,444.246 300.138,445.913 301,447.5C 308.365,454.53 315.365,461.864 322,469.5C 331.486,488.972 332.82,508.972 326,529.5C 323.73,534.098 321.063,538.431 318,542.5C 312.633,547.532 307.633,552.865 303,558.5C 298.431,571.47 298.431,584.47 303,597.5C 311.138,605.298 318.138,613.965 324,623.5C 330.463,642.948 331.13,662.615 326,682.5C 324.772,686.059 323.106,689.392 321,692.5C 315.506,698.662 310.006,704.828 304.5,711C 300.189,727.069 304.522,740.402 317.5,751C 323.221,754.527 329.221,757.527 335.5,760C 373.442,770.386 412.109,776.386 451.5,778C 484.858,778.382 518.191,778.548 551.5,778.5C 588.86,776.86 625.526,771.027 661.5,761C 681.191,755.645 692.858,742.978 696.5,723C 695.539,719.197 694.706,715.364 694,711.5C 689.7,706.199 685.034,701.199 680,696.5C 673.79,688.208 670.123,678.875 669,668.5C 666.859,650.546 669.859,633.546 678,617.5C 684.374,610.794 690.374,603.794 696,596.5C 699.333,584.5 699.333,572.5 696,560.5C 689.097,553.02 682.431,545.354 676,537.5C 668.892,523.311 666.558,508.311 669,492.5C 670.33,484.842 672.664,477.509 676,470.5C 682.607,462.89 689.607,455.557 697,448.5C 701.41,435.991 701.243,423.491 696.5,411C 697.005,399.492 703.005,393.326 714.5,392.5C 726.017,392.848 732.183,398.848 733,410.5C 736.78,427.024 736.113,443.357 731,459.5C 728.667,463.5 726.333,467.5 724,471.5C 717.64,477.194 711.64,483.194 706,489.5C 702.732,499.218 702.732,508.885 706,518.5C 713.752,526.248 720.752,534.581 727,543.5C 734.892,564.915 735.558,586.582 729,608.5C 727.444,613.28 725.111,617.613 722,621.5C 716.667,627.5 711.333,633.5 706,639.5C 702.702,650.514 702.702,661.514 706,672.5C 727.307,690.027 734.974,712.36 729,739.5C 722.372,762.463 708.205,778.963 686.5,789C 665.85,797.066 644.517,802.733 622.5,806C 546.599,816.623 470.599,817.29 394.5,808C 370.381,805.037 346.714,800.037 323.5,793C 278.068,776.298 260.901,744.465 272,697.5C 273.663,693.504 275.829,689.837 278.5,686.5C 283.518,681.316 288.351,675.983 293,670.5C 295.992,659.753 295.659,649.086 292,638.5C 286.667,632.5 281.333,626.5 276,620.5C 266.502,604.833 262.835,587.833 265,569.5C 265.48,558.431 268.48,548.098 274,538.5C 279.658,531.509 285.658,524.843 292,518.5C 296.56,508.53 296.56,498.53 292,488.5C 283.986,481.152 276.653,473.152 270,464.5C 267.008,458.523 265.008,452.19 264,445.5C 261.075,426.135 264.075,407.802 273,390.5C 280.833,380 290,370.833 300.5,363C 305.5,362.333 310.5,362.333 315.5,363C 351.824,378.442 389.157,391.108 427.5,401C 502.387,413.064 575.721,407.064 647.5,383C 652.254,380.859 656.921,378.525 661.5,376C 662.687,374.981 663.687,373.814 664.5,372.5C 657.096,366.461 648.762,361.961 639.5,359C 621.505,352.251 603.172,346.584 584.5,342C 578.958,334.748 578.124,326.915 582,318.5C 584.156,315.879 586.656,313.879 589.5,312.5 Z"/></g>
<g><path fill="#902625" d="M 411.5,519.5 C 414.85,519.335 418.183,519.502 421.5,520C 439.625,527.486 458.292,533.153 477.5,537C 496.5,539 515.5,539 534.5,537C 552.841,532.774 571.008,527.941 589,522.5C 604.849,526.199 609.516,535.532 603,550.5C 600.617,553.273 597.783,555.439 594.5,557C 544.692,575.684 494.025,578.351 442.5,565C 429.923,560.709 417.59,555.875 405.5,550.5C 399.859,544.965 398.026,538.298 400,530.5C 402.437,525.226 406.271,521.56 411.5,519.5 Z"/></g>
<g><path fill="#902625" d="M 409.5,646.5 C 414.179,646.334 418.845,646.501 423.5,647C 460.165,663.881 498.498,669.215 538.5,663C 555.381,659.114 572.048,654.614 588.5,649.5C 602.666,651.49 608.166,659.49 605,673.5C 603.939,676.562 602.106,679.062 599.5,681C 534.705,707.821 470.371,706.821 406.5,678C 398.375,670.015 397.375,661.181 403.5,651.5C 405.571,649.815 407.571,648.148 409.5,646.5 Z"/></g>
<g><path fill="#902625" d="M 397.5,815.5 C 402.752,817.459 407.752,819.959 412.5,823C 438.333,850.167 464.167,877.333 490,904.5C 518.469,878.366 546.635,851.866 574.5,825C 590.486,818.095 603.486,821.595 613.5,835.5C 618.335,843.329 618.668,851.329 614.5,859.5C 577.682,893.817 541.016,928.317 504.5,963C 494.167,969 483.833,969 473.5,963C 441.301,929.803 409.468,896.303 378,862.5C 366.968,847.524 368.135,833.691 381.5,821C 386.846,818.83 392.179,816.997 397.5,815.5 Z"/></g>
</svg>
